<?xml version="1.0" encoding="UTF-8"?>
<svg id="Layer_1" data-name="Layer 1" xmlns="http://www.w3.org/2000/svg" version="1.1" viewBox="0 0 2000 800">
  <defs>
    <style>
      .cls-1 {
        stroke-dasharray: 0 0 0 0 0 0 23.6 7.9;
      }

      .cls-1, .cls-2, .cls-3, .cls-4 {
        fill: none;
        stroke: #f05324;
        stroke-miterlimit: 10;
        stroke-width: 5px;
      }

      .cls-5 {
        fill: #d3d3d3;
      }

      .cls-5, .cls-6, .cls-7, .cls-8, .cls-9, .cls-10, .cls-11, .cls-12, .cls-13, .cls-14, .cls-15, .cls-16, .cls-17, .cls-18 {
        stroke-width: 0px;
      }

      .cls-6 {
        fill: #140f09;
      }

      .cls-7 {
        fill: #fff0c1;
      }

      .cls-8 {
        fill: #f8a426;
      }

      .cls-9 {
        fill: #f15a29;
      }

      .cls-10 {
        fill: #f0512e;
      }

      .cls-11 {
        fill: #f05324;
      }

      .cls-12 {
        fill: #a47661;
      }

      .cls-2 {
        stroke-dasharray: 0 0 0 0 0 0 23.8 7.9;
      }

      .cls-3 {
        stroke-dasharray: 0 0 0 0 0 0 24.1 8;
      }

      .cls-13 {
        fill: #fed84e;
      }

      .cls-14 {
        fill: #f57f20;
      }

      .cls-15 {
        fill: #231f20;
      }

      .cls-16 {
        fill: #fff;
      }

      .cls-17 {
        fill: #c57c2a;
      }

      .cls-18 {
        fill: #f78f29;
      }
    </style>
  </defs>
  <path class="cls-6" d="M500.9,396.6c1.5,11.7-6.2,18.3-13.3,25-2.9,2.7-6,5.5-9.5,7.3-5.1,2.6-4.8,7.3-5.6,11.6-3.9,23-9.9,45.5-14.6,68.3-1.9,8.9-4,17.7-6.1,26.9,2.4.2,3.3-.8,4-2.5,3.5-7.6,7-15.2,10.5-22.8.6-1.4.5-2.7,0-4-1.5-4.4-1.1-9-2-13.5-.1-.8,0-1.8.5-2.4,4-4.9,7.7-10,11-15.4,1.2-2,3.5-3,7-1.5,7,3,13.3,7.1,20,10.6,2.2,1.1,2.4,2.1,1.1,4.1-2.8,4.2-5.5,8.6-7.6,13.2-.6,1.3-1.6,2.3-2.9,2.8-9.4,3.2-13.7,10.6-16.7,19.3-1.4,3.9-1.9,7.1,0,11.3,5.2,11.6,6,24,5.8,36.6-.6,38.6-10.4,74.7-31,107.5-5.4,8.6-12,16.1-20.4,22.1-7.8,5.5-16.7,7.6-25.8,8.7-17.8,2.1-34.9-.6-51.2-8.3-1.3-.6-2.3-1.1-3,.6-3.3,7.1-6.1,14.2-5.2,22.3.4,3.1,1.7,4,4.9,3.9,31.4-.9,62.1,2.8,92.1,12.3,7.4,2.3,14.5,5.5,21.1,9.7,9.9,6.4,9.6,12.7-.6,18.4-2.6,1.4-5.2,2.1-8.2,2.1-15.8,0-31.6-.6-47.3-1.5-3.6-.2-5.8,2.4-8.2,4.2-2.3,1.7-4.5,2.3-7.2,2.3-28.3-.3-56.6-2-84.8-.4-17.6,1-32.5-3.9-47-12-14.6-8.1-27.3-18.3-36.2-32.8-1.7-2.8-3.6-2.2-5.9-1.1-13.1,5.9-26.7,9.9-40.9,11.1-33.2,2.8-60.8-8.9-77.8-42-8.1-15.8-12-32.8-13.4-50.4-4-48.5,7-94.6,22.7-140,12.5-20.1,6.6-41.4,3.4-62.3-2.1-13.9-6.8-27.2-14.4-39.3-2.2-3.5-.8-5.5,4.1-5.5,20.3-.3,35.6,8.7,46.5,25.4,11.7,18,15.2,38.2,15.4,59.2.3,28.5-5.3,56-13.9,83-.5,1.7-1.3,3.3-1.3,5.2,0,17.2-.7,34.4,1.5,51.5.8,5.8,2,11.4,4.4,16.8,4.1,8.8,10.1,9.9,17.2,3.4,11.4-10.4,19.2-23.5,26.5-36.8,15.1-27.5,26.7-56.7,37.6-86.1,16-43.1,29.4-87.1,40.3-131.7,7-28.5,13.3-57.2,18.1-86.2,1.5-8.7,3.3-17.3,4.5-26.1.4-2.7-.4-3.2-2.9-2.3-16.8,6.2-31.5,1.5-44.7-9-15-11.9-24.1-27.5-26-46.8-.9-8.6,2.3-11.6,11.1-12.6,14.9-1.7,27.7,3.7,39.6,11.7,8.8,5.9,16.2,13.4,22.4,22,.8,1.1,1.7,2.1,3.2,3.8.7-7.2-.6-13.3-2-19.4-.6-2.4-1.5-4.7-2.1-7.1-.7-3-2.2-5.2-5-6.7-1.9-1-3.6-2.4-4.4-4.3-1.3-2.8-2.7-3.3-5.8-2.2-6.6,2.4-13.5,2.7-20.2.3-10-3.5-15.2-13.3-12.2-23.5,4.5-15.2,15.7-23.5,30.1-27.9,8.9-2.7,17.7-2.5,25.8,2.8,1.6,1,3,2.3,4.5,3.5,1-1.6,1.9-3.3,3-4.8,7.2-10,16.5-16.6,29-17.6,10.5-.9,16.9,4.8,17.5,15.3,0,.7,0,1.4,0,2.5,10.9-4.3,20.1-3.2,26.1,8.2,5.2-4.8,10.2-9.5,16.5-12.5,4.8-2.3,9.7-2.9,14.9-2.3,1.2.1,2.2.3,2.6,1.6.4,1.1-.2,1.9-1,2.5-1.1.8-1.4,1.5-.7,3,4.5,11.1,5,22.6,2.9,34.2-.6,3.3,0,5.5,2.5,8.3,16.4,17.4,20,38,13.7,60.7-.7,2.7-1.9,5.5-4.8,6.9,1.2,1.4,2.5.9,3.7,1,2,.3,2.9-.3,2.9-2.6,0-6.3,3.1-9.7,8.9-9.9,6.4-.3,9.5,3,10.8,9.3.9,4.7.2,7.9-4.2,9.8-1.8.8-1.4,1.7-.4,2.8,2.5,2.7,4.2,5.9,5.1,9.4.7,2.9,2.2,4.3,4.9,5.3,9.9,3.8,19.8,7.6,29.5,11.7,6.8,2.8,13.7,1.5,20.5,1.4,19.9-.3,39.9-1,59.8-1.5,1.2,0,2.7-.5,3.4.9.7,1.5-.4,2.4-1.4,3.1-1.3.9-.9,2.2-1,3.4-.8,39.9-3.3,79.8-5.8,119.6-.2,2.3-.8,4.7,1.7,6.3,1,.7.8,2-.2,2.9-1.7,1.5-3.7,2.8-6,1.7-2.2-1.1-4.2-2.6-6.2-4-18.6-13.5-37.3-26.9-55.9-40.3-.2-.2-.5-.2-1.5-.5h0ZM319.9,214.7c-4.8.5-9.4,2.1-14.3,1.5-2.4-.3-1.4,1.3-1,2.4,1.4,4.3,2.6,8.7,3.3,13.3.9,5.8,1.1,11.5.5,18.2,2.4-2.5,4.6-4.1,4.9-6.7,1-8.9,4.8-16.6,9.9-23.8,5.1-5.4,10.9-9.7,18.9-11.3-2.8-1.3-5.5-1.1-7.5-2.7-.8-.6-1.5,0-2.1.7-3.5,3.9-8,6.2-12.5,8.5h0ZM291.7,250.5c-6.8-12-16.3-21.4-28.2-28.4-5-3.9-10.7-6.1-16.7-7.9-3.8-1.5-7.9-1.2-11.9-1.3-2.4,0-3.1.9-2.8,3.2,2.6,26.5,16.9,44.4,40.5,55.3,7.9,3.6,16.3,4.2,24.4-.1,1.5-.8,3.4-1.8,2.1-3.7-1.7-2.5-1.5-5.6-3-8.1-.7-3.4-2.4-6.3-4.4-9h0ZM353.5,631.8c1.1-2.3.7-4.6.4-7-.1-1.3-.2-2.7-.3-4,.2-10.5-2.8-20.2-8.1-29.1-8.7-14.5-21.2-23.7-38-26.7-1.5-.9-3.2-1-4.9-.8-1.5-.8-3.2-.8-4.9-.8-9.7-.5-19.1,1.4-28.3,4.3-1.7.5-3.4,1.7-4.4-.9,1.7-1.7,3.8-2.6,6-3.4,10.9-3.9,22.1-5.2,33.6-5,1.1,0,3.1.8,3.3-.7.5-2.9.7-6.1.2-9-.3-1.8-2.1-3.4.3-4.9,2.1-1.3,4.3-1.7,6.4.2,10.5,9,23.6,9.9,36.5,11,4.1.3,2.6-4.1,3.8-6.2,1.3-2.3-.9-2.4-2.1-3-5.6-2.7-11-5.8-16.2-9.3-13.9-9.4-25.2-21.5-34.5-35.5-.6-1.4-1.2-2.8-1.9-4.1-4.3-8.2-7.7-16.7-8.5-26,.5-1.8,1.9-2.5,3.6-2.8,2.2,1.3,2.1,3.7,2.9,5.8,15,40.8,44.2,65.1,86.2,74.7,3.4.8,7.5-.6,10.4,3,1,1.2,1.7-.8,1.5-1.8-.9-4-1.1-8.2-4.3-11.3-5-8-11.8-14.6-18.6-21-14.2-13.2-26.8-27.8-37.5-44-8.7-12.9-15.4-26.8-20.9-41.3-.7-1.9.7-2.4,1.2-3.5,5-2.1,6.2,2,7.6,5,3.3,7,6.4,14.2,10.7,20.7,3.2,5.3,6.5,10.6,10,16.5.5-1.3.7-1.6.7-2,1.1-13.2,8.4-22.3,19.4-28.5,3.1-1.8,4.5-3.8,4.3-7-.1-3.8-.5-7.7-.9-11.5,0-.5,0-1,.1-1.5,0-.3,0-.6,0-.9,0-.8-.1-1.6-.2-2.4,0-.1.2-.3.1-.3-.1-.2-.3-.4-.4-.6-1.2-12-4.5-23.5-7.2-35.2-1.8-7.6-7.1-13.5-8.6-21.2-2.1-10.6-3.1-21.1.2-31.6,2.1-6.7,6.3-11.4,13.6-12.3,2.9-.4,6,.4,9,.3,2.4,0,2.4-.8,2.5-2.5.4-4.3,1.1-8.5,1.1-12.8,0-4,2.4-5.3,5.7-6.5,3.6-1.2,5.5.5,7.4,2.9,3.8,4.8,7.5,9.6,11.4,14.2,2.9,3.6,5.6,7.3,8.9,10.7,2.1,2.2,3.1,2.2,5.2,1.7.5-.1,1.1,0,1.6-.1,8-1.7,16.1-3.3,22.3-9.2,11.3-6.2,17-23,6-34-3.8-4.5-7.9-7.6-14.6-7.7-14-.2-27.1-4.4-39-12-1.1-.7-1.9-2.2-3.7-1.6.3,8.8-1.1,17.4-5.1,25.3-6.6,13.1-16.8,21.9-32,21.7-11.3-.2-20.4-6.2-27.4-15.1-5.7-7.2-9-15.5-11.6-24.1-.6-4.4-1.1-8.8-1.8-13.4-5.3,5.9-5.1,13-6.2,19.8-2.3,15.1-4.3,30.2-7.2,45.2-1.9,9.5-3.6,19-5.7,28.4-7.7,34-16.2,67.8-26.1,101.3-14.1,47.7-30.1,94.8-51.7,139.7-8.5,17.7-17.4,35.2-29.9,50.5-5.2,6.3-10.7,12.4-18.7,15.4-7.8,2.9-13.8.7-17.8-6.6-2.2-4.2-3.7-8.6-4.6-13.2-2.2-11.1-2.1-22.2-2.6-33.4-.4-8.8,3.3-17.6-.3-26.3-.2-.5.4-1.3.6-1.9,8.3-25.2,13.5-51,13.7-77.6,0-11.4-.5-22.7-3.3-33.8-4.9-30.1-24-51.5-45.7-54.3,2.1,4.5,4.2,9,6.3,13.4.1.7.2,1.4.4,2,6,16.7,8.8,33.9,8.8,51.6,0,5.8-.4,11.6-.6,17.4-2.2,9.8-6.7,18.8-9.9,28.2-13,39.2-21.3,79.3-18.8,121,1.4,23.4,6.4,45.8,20,65.4,12.7,18.3,30.3,28.6,52.8,30.2,14,1,27.4-1.5,40.6-5.9,5.1-1.7,10.4-2.8,14.7-6.2,3.8-3,4.4-3.2,7.1.6,12.6,18.1,29.9,30.2,49.5,39.3,8,3.7,16.5,6.8,25.4,6.9,28.3.4,56.5.5,84.8.9,3.7,0,6.6-1,9.4-3.3,2.5-2.1,2.7-4,.6-6.3-1.4-1.5-3-2.8-4.9-3.9-6-3.3-12.3-5.5-18.9-7.2-12.2-3.5-24.6-5.4-37.2-6.7-10.3-1.1-20.6-1.6-30.9-1-6.6.2-13.2-.4-19.8.9-4,.7-5.6-1-5.3-5.2.2-2,.7-4,1.1-6.1,8.1-15.5,19.4-28.1,34.1-37.7,1.6-.2,2.7-1.2,3.9-2.1,5.7-4.3,10.6-9.3,14.9-14.9,10.3-13.7,17.4-28.7,18.7-46.1h0ZM487.5,503.6c5.1-.2,4.6-4.9,6.2-7.8,4-7.1,3.9-7.2-3.8-10.9-1-1.6-2.8-2.1-4.3-3.1-5.4-3.7-5.5-3.7-9.4,1.7-1.9,2.6-4.9,4.8-4.8,8.4.1,3.8,0,7.9,1.1,11.4,1.2,3.6.2,6.4-1.1,9.4-2.5,5.9-5,11.7-7.8,18.1,3.4-.7,5.4-1.9,6.2-4.8.6-2.1,2-4,2.7-6,2.5-7.7,6.6-14,15-16.4h0ZM321.8,237.1c3.1-1.7,6.2-3.5,9.4-4.9,9.4-4.2,19.2-6.5,29.6-5.9.8,0,2.4.6,2.2-.9-.3-2.3.5-5.1-2-6.8-4.5-3.1-9.4-5.3-14.9-5.6-11.4-.5-23.5,11.7-24.3,24.2-.2,0-.3,0-.5.1,0,0,.2,0,.2,0,.1,0,.2-.2.3-.2h0ZM468.7,434.4c-.2-1.3-.4-2.7-2.3-2.8-2.2,0-2.7,1.6-3.2,3.2-2.5,7.6-4.3,15.4-6,23.2-5.4,26.1-11.4,52-17.5,77.9-.4,1.6-.8,3.6.4,4.2,1.5.8,3.5-.2,4.7-1.5.9-1,1.4-2.3,1.7-3.7,3.4-15.8,7-31.5,10.4-47.3,1.6-7.4,4-14.6,4.6-22.2,1.6-3.4,2.2-7,2.9-10.6,1.3-6.8,4-13.3,4.3-20.3h0ZM387.3,204.5c5.4-8.7,12.5-14,23.4-12.5,1.3.2,2.4.1,2.5-1.7,1-10.1,1.5-20.1-1.9-29.9-.4-1.8-1-3.7.4-5.5-.7-.2-1.1-.3-1.5-.3-7.1-.3-21,10.3-22.9,17.4,0,.2,0,.5,0,.8-.5,2.8-1.1,5.6-1.6,8.4-1.9,3.4-3.8,7-7.1,9-3.9,2.3-5.4,5.7-6.4,9.7-1,4.2-2,8.3-2.9,12.5-.2,1.1-.5,2.2.5,3.1,4.9,4,8.8,8.9,12.3,14.3-.4-9,1.1-17.5,5.1-25.4h0ZM443.6,423.6c-.5-3.3-3.5-1.9-5.2-2.4-1.4-.4-1,1.9-1.1,3-.6,4.4-1,8.8-1.6,13.2-2.3,17.5-4.6,35-7,52.5-2.5,18-4.6,36.1-8.2,54-.5,2.4.5,2.8,2.7,2.4,5-.8,4.6-4.9,4.9-8.3,2-19.4,5.5-38.6,8.2-57.8,1.4-9.8,3.6-19.6,4.2-29.5,1.3-9,2.5-18,3-27.1h0ZM377.2,421.7c0,3.8,0,7.6,0,11.5,0,1.7.7,2.1,2.3,1.8,14.1-3.2,27.3,0,39.9,6.3,7.7,3.9,9.2,3.1,9.5-5.7,0-.1,0-.3,0-.4.6-4.6,1.3-9.3,1.7-13.9.2-2.6,1.5-4.5,3.7-4.8,4.3-.7,8.8-1,13.1.2,1.2.3,2.8,1,2.1,2.5-2.1,4.2-.8,8.7-1.6,12.9-.4,3-.7,5.9-1.1,9.3,5-2,10.1-2.7,10.5-9.5.3-5.1,3.2-6.4,8.4-5.2,3.8.8,7.5,1,10.9-1.9,5.4-4.7,10.9-9.3,14.9-15.4,2-3,2.8-6.2,1.8-9.7,0-5.2-1.4-9.8-5-13.6-4.6-5.3-5.8-5.4-10.6-.3-.2.2-.4.4-.6.5-8.2,6.2-15.7,13.4-24.7,18.5-9,4.4-18.2,8.2-28.3,9.4-17.5,2.1-33.8-.2-47.8-12-.7-.6-1.3-1.9-2.9-1.2,2.1,6.9,2,14.1,3.9,21h0ZM451.6,764.5c2.1.2,4.1.4,6.2.6,2.4.2,4.4-.7,5.6-2.6,1.3-2.1-.7-3.6-1.9-4.9-1.3-1.4-2.9-2.6-4.5-3.6-4.5-2.8-9.3-4.8-14.3-6.4-10.9-3.6-21.9-7.1-33.4-8.6-1.2-.3-2.4-.8-3.6-1-11.8-2.2-23.7-3.8-35.7-4.7-7.1-.5-14.3-1-21.5.5-5.7,1.2-9.2-1.5-10.3-7.3-1.4-7.4.6-14.3,4.2-20.7,1.5-2.6,5-5.5,4.5-7.5-.6-2.5-4.4-4.1-6.8-6.2-1.6-1.4-3.5-4.6-4.5-4.3-2,.5-3.4,3-5.2,4.6-3.5,3.2-6.5,7.1-11.4,8.1-2.6.5-4.7,1.5-6.5,3.2-7.9,7.3-14.8,15.4-19.9,24.8-1.2,2.2-2.1,4.5-2.3,7.1-.1,2.2.5,3.3,3.1,3,5.8-.6,11.6-1.1,17.4-1.2,19.6-.3,39,1.4,58.2,5,10.5,1.9,20.8,4.8,30.2,10,4.3,2.4,8.9,4.9,9,10.9,0,1.4,1.2,1.2,2.1,1.2,13.7,0,27.4,0,41.2,0h0ZM286.6,199.6c3.3.3,6.9-.6,9.4,2.5,6,7.6,16,10,25.3,6,5.7-2.5,8.8-6.7,9.4-12.9.3-3,3.6-5.3,6.5-4.8,3.2.5,1.7,2.8,1.7,4.6,0,3.5,3.8,6.9,7.9,7,3.8.1,6.4-2.5,6.6-6.3.3-7.9,3.5-10,10.8-6.8,3.2,1.4,5.7,1.3,7.2-2.5.9-2.4,2.4-4.6,3.7-6.9,4.1-6.9,3.2-11.7-3.1-16.7-5.2-4.1-10.4-3.4-14.1,2-1.4,2-2.3,4.4-3.8,6.3-1,1.4-2.6,2.9-4.5,1.3-1.6-1.3-3.2-2.6-1.7-5.1,1.8-3,2.6-6.4,2.7-9.9.4-9-6.8-14.8-15.2-12.3-12.1,3.6-22.2,16.5-21.1,29.2.5,5.8-.4,6.7-6.2,7.9-3.3.7-4.5-.5-4-3.8,1.1-7.9-2.1-13.8-9.3-17.1-3.9-1.8-8-1.9-12.2-1.3-9.9.3-21.4,9.3-25,19.5-2.7,7.8-.5,15.2,5.5,19.7,5.4,4.1,18.8,5.5,23.6.5h0ZM357.6,653.9c-4.2,9.3-9,18.3-15.7,26.2-1.3,1.5-.8,2.6.4,3.9,3.3,3.6,7,6.7,11.3,9,20.1,11.2,41.3,15.3,63.7,8.9,4.4-1.2,9.3-2,13.1-5.5,9.6-8.9,16.9-19.2,22.5-30.9.9-1.7,2-3.3,2.8-5,9.5-20.2,15.8-41.4,19-63.5,2.4-16.5,3.2-33-.2-49.5-.5-2.3-.8-4.6-1.5-6.8-.7-2.5-.9-4.7-5.1-3.8-2.8.6-5.4,1.5-7.9,2.6-26.3,11.7-53.9,18.4-82.5,21.6-8.7.6-17.4,1.1-26.1.7-11.9-.6-23.6-2.3-34.6-7.4-.9-.4-2.6-2.1-2.7.2,0,1.6-2.8,4.2,1,5.2,21.4,5.2,36.6,17.5,44.8,38.1,1.5,5.3,3,10.6,3.6,16.1,1.4,13.9-1.3,27.2-5.8,40.2h0ZM548.2,420.2c2.6,2.6,5.8,4.3,8.7,6.4,1,.7,1.8,2.1,3.4,1.7,1.8-24.5,3.4-49,5.3-73.4,1.1-14.1,1.9-28.2,3.9-42.1.4-2.9-.6-3.5-3.2-3.5-18.8.1-37.7.1-56.5.2-8.9,0-8.8,0-8.6,8.8.2,22.4.3,44.9.5,67.3,0,1.8-.2,3.3,1.8,4.6,7,4.4,13.9,9.2,20.8,13.8,8,5.4,16.1,10.8,24.1,16.1h0ZM436.3,323.5c-1.3.4-2.3.8-3.3,1.1-20.5,7.8-40.6,8.7-60.7-1.5-8.6-4.4-11.8-2.8-13,9.5-2,19.3,4.5,37.2,10.9,55,0,.3.2.7.3.7,4.6,1.4,6.5,5.8,10,8.5,16.3,12.9,34.4,15,53.9,9.5,7-2,13.6-4.9,20.5-9.8-6.8.8-12.4,1.4-18,2-1.5.2-3,.3-2.8-2.2.4-6.7.5-13.5.6-20.3.2-17.4.8-34.8,1.7-52.5h0ZM441.7,393c2.8-.4,6.3-.7,9.6-1.4,6.2-1.4,12.8-1,17.9-6.9,6.1-7.1,14.1-10.8,23.7-5.7,1.1-1.9.7-3.9.7-5.8-.1-19.8-.1-39.6.6-59.4,0-1.8-.6-2.5-1.9-3.2-10.7-4.8-21.3-9.7-32.3-14.6-1.7,10.4-8.1,17.3-16.2,22.7-1.9,1.3-2.1,2.9-2.1,5,0,12.2.1,24.4.1,36.6,0,10.9,0,21.8,0,32.6h0ZM381.7,263.2c0-3.9-.6-7.7-1.1-11.6-1.1-10.4-7-16.2-17-18.7-9.9-2.4-19.3-1.5-28.6,2.3-15,6.1-17,8.6-14.5,24.3,2.6,16.9,10.3,31,26.6,38.6,8.3,3.9,17.6,2.3,23.9-4.5,8.1-8.6,10.4-19.2,10.7-30.5h0ZM417.8,205.4c-.8,2.1-1.4,3.8-2.1,5.4-5.2,12.5-10.9,24.6-25,29.6-.8.3-.7.9-.9,1.5-1.8,5.5,1.3,8.8,5.2,11.7,9,6.6,19.5,9.5,30,12.4,1.8.5,1.8-.7,2.3-2,4-10.3,4-20.8,2-31.4-1.8-9.7-4.7-19-11.5-27.2h0ZM388.1,227.2c.4,2.6-1.2,7,1,7.9,3.2,1.3,5.8-2.3,8.1-4.6.5-.5,1-1,1.4-1.5,5.6-7,9-15.1,11.4-23.7,1.7-6.1.3-8-6.2-8.1-3.7,0-6.2,1.8-8.3,4.6-5.7,7.5-7.2,16.2-7.5,25.5ZM404.3,550.4c4.2-1,7.9-1.9,11.6-2.8,1.2-.3,1.5-.9,1.6-2,.5-5.7,1.1-11.3,1.7-16.9.2-2.2-.7-2.2-2.4-1.7-4.8,1.4-9.8,1.8-14.7,1.7-1.7,0-3.4-.6-5.5.2,5.4,6.1,9.3,12.4,7.8,21.5h0ZM425.8,463.7c.4-4.1.5-4.2-1-5.7-6.1-6.2-13.2-10.9-21.3-14.2-2.8-1.1-4.7.3-5.7,2.6-1.3,2.7.8,3.7,2.9,4.4,4.2,1.3,7.6,3.8,10.7,6.9,2.7,2.6,4.3,6,7.6,8.2,1.7,1.1,2.8,3.3,5.1,2.6,2.6-.8.9-3.4,1.6-4.7h0ZM448,474c2.2-10.4,4.5-20.8,6.8-31.4-2.4,1-4.3,1.8-6.2,2.4-1.2.4-2.6.6-2.7,2.1-.5,8.9-5,18.2,2.2,26.9ZM400.1,323.6c-4.9-6.5-9.3-12.3-14.2-18.8-.7,4.8-1.2,8.8-1.8,12.7-.2,1.6,0,2.7,1.7,3.2,4.4,1.3,8.6,2.9,14.2,2.9h0ZM440,513.8c-3.4,3-7.4,23.4-5.7,29.6,2-10.3,3.8-19.6,5.7-29.6ZM367.1,195.7c-4.1-.1-5.7,1.8-4.6,5.7.3,1.2.8,2.5,1.5,4.6,1.2-4,2.2-7.2,3.2-10.3ZM354.6,203.9c-3.3,2.1-6.4,3.6-9.4,3.6,2.9.8,6.8-.3,10.5,1,.2-1.7-.6-3-1.1-4.5h0Z"/>
  <path class="cls-18" d="M302.6,564.1c1.7-.2,3.4,0,4.9.8.5,2.6,2.9,3.2,4.7,4.2,7.3,4.2,14.2,8.9,20.4,14.7-.5,0-1.1,0-1.6.2-2.2.4-4.5,1-5.4,3.3-1,2.4,1.5,3.3,2.8,4.5,3.7,3.4,6.3,7.5,7.2,12.3,1.3,6.3,1.5,12.8,1.2,19.3-1,19.1-8.1,35.9-18.5,51.7-3.6,5.4-7.9,10.3-12.5,14.9-1.4,1.4-2.3,3-1.4,4.8,1,2.1,3.1,1.6,4.8,1.3,2.2-.4,4.3-1.1,6.4-1.7.1.1.2.3.4.4-14.7,9.6-26,22.2-34.1,37.7-.4-.6-.6-1.2-1.1-1.7-4.1-4.7-4.8-14.5-1-19.3,3.2-4.1,5.6-8.6,7.9-13.1,8.5-17,15.2-34.6,17.2-53.8,1.3-11.7.7-23-3.1-34.3-3.4-10.2-18.9-19-29.2-15.8-13.6,4.3-25.6,11.2-36.3,20.3-12.9,10.9-19.1,26.7-27.6,40.6-8.1,13.1-11.6,28.4-19,41.9-1.5,2.8-3,4-6.3,4.1-5.4,0-9.8-2.9-14.6-3.7-8.9-1.5-14.7-7-20.2-12.8-12.8-13.5-21-29.9-25.6-47.7-5.2-20.1-6.4-40.7-2.8-61.4,0-.4,0-.8,0-1.2,1.6-10.3,3.2-20.7,4.9-31,1-6,4-11.6,3.3-17.8-1.3-11.1-1.9-22.3-5.6-32.9-.3-.9-.4-1.9-1.6-2.1.2-5.8.6-11.6.6-17.4,0-17.7-2.7-34.9-8.8-51.6-.2-.6-.3-1.3-.4-2,2.8,0,3.9,2.1,5.2,4,7.6,11,15,22.1,19.2,34.9.7,2,2.3,3,4.1,3.7,4,1.6,7.5.9,10.8-1.8,2.8,11.1,3.4,22.4,3.3,33.8-.2,26.7-5.4,52.4-13.7,77.6-.2.7-.8,1.4-.6,1.9,3.6,8.7,0,17.5.3,26.3.4,11.2.4,22.4,2.6,33.4.9,4.6,2.4,9.1,4.6,13.2,3.9,7.3,10,9.6,17.8,6.6,7.9-3,13.5-9,18.7-15.4,12.5-15.3,21.4-32.8,29.9-50.5,21.6-44.9,37.6-91.9,51.7-139.7,9.9-33.5,18.4-67.2,26.1-101.3,2.1-9.4,3.8-18.9,5.7-28.4,3.5,0,6.8-.9,7.8-4.7.7-2.6.6-5.5,1-8.2,1.8-12.9,2.1-26.1,6.3-38.7,2.6,8.6,5.9,17,11.6,24.1,7.1,8.8,16.1,14.9,27.4,15.1,15.2.2,25.4-8.6,32-21.7,4-7.9,5.4-16.5,5.1-25.3,1.8-.6,2.6.9,3.7,1.6,11.9,7.5,25,11.8,39,12,6.7,0,10.8,3.2,14.6,7.7-1.5,0-3.1-.1-4.6.1-4.9.7-6.3,2.8-5.2,7.5.3,1.2.2,2.4.1,3.6-.5,8.2-5.3,14-10.6,19.5-1.8,1.9-5.7,3.9-3.8,6.8,2.4,3.6,6,.5,8.9-.5.3,0,.5-.2.7-.4,2.3-2.5,5.3-2.7,8.4-2.7-6.2,6-14.3,7.6-22.3,9.2-.5.1-1.1,0-1.6.1-2.1.5-3.1.5-5.2-1.7-3.3-3.4-5.9-7.1-8.9-10.7-3.9-4.7-7.6-9.5-11.4-14.2-1.9-2.4-3.8-4.1-7.4-2.9-3.3,1.2-5.6,2.5-5.7,6.5,0,4.3-.8,8.5-1.1,12.8-.1,1.6-.1,2.4-2.5,2.5-3,0-6-.7-9-.3-7.3.9-11.5,5.7-13.6,12.3-3.3,10.5-2.3,21-.2,31.6,1.5,7.6,6.8,13.5,8.6,21.2,2.8,11.7,6.1,23.2,7.2,35.2l.3.9c0,.8.1,1.6.2,2.4,0,0-.2.2-.2.3,0,.2.2.4.3.6,0,.5,0,1-.1,1.5-6.9,1.4-12.3,5.1-17.4,9.8-7,6.6-11.2,14.9-16.3,22.7-4.4-6.5-7.4-13.7-10.7-20.7-1.4-3.1-2.6-7.1-7.6-5-2.8-4.4-2.6-9.7-4.1-14.6-.7-2.2-1.9-2.9-3.8-2.9-4.8,0-8.6,4.2-7.8,9,.6,3.7,1.4,7.3,2.6,10.8,5,14.6,10.3,29.1,18.7,42.2,4.3,6.8,9.4,7.2,14.1.3,10.7,16.2,23.3,30.7,37.5,44,6.8,6.3,13.6,12.9,18.6,21-10-1.5-18.4-6.7-26.6-11.9-9.4-6-18.4-12.8-26.5-20.5-12-11.2-24.6-21.9-30.2-38.2-.4-1.2-1.4-1.7-2.4-2.2-3.4-1.5-7.9-.4-10.9,2.5-1.7.2-3.1.9-3.6,2.8-2.2,1-2.1,3-2.1,5,0,7.7,4.5,13.8,8.1,20,1,1.8,1.4,4.8,4.4,5.1,9.2,14,20.5,26,34.5,35.5,5.2,3.5,10.6,6.5,16.2,9.3,1.2.6,3.4.7,2.1,3-1.2,2.1.3,6.5-3.8,6.2-12.9-1-26-1.9-36.5-11-2.2-1.9-4.3-1.5-6.4-.2-2.4,1.5-.6,3.1-.3,4.9.5,2.9.3,6-.2,9-.2,1.5-2.2.7-3.3.7-11.5-.3-22.8,1-33.6,5-2.2.8-4.3,1.8-6,3.4-.4.2-.7.4-1.1.6-4.9,2.5-8.9,6.1-12.1,10.6-1.3,1.9-2.3,4-.5,6.1,1.7,2,3.8,1.2,5.5-.1,1.4-1.1,2.8-2.2,4.1-3.4,7.6-7.2,16.9-10.5,27.1-12.1,4.9-.8,10.2-.3,14.4-4h0Z"/>
  <path class="cls-14" d="M121.4,490.8c1.2.2,1.3,1.1,1.6,2.1,3.7,10.7,4.3,21.9,5.6,32.9.8,6.2-2.3,11.8-3.3,17.8-1.7,10.3-3.3,20.7-4.9,31,0,.4,0,.8,0,1.2-3.7,20.7-2.5,41.3,2.8,61.4,4.6,17.8,12.8,34.2,25.6,47.7,5.5,5.8,11.3,11.3,20.2,12.8,4.8.8,9.2,3.8,14.6,3.7,3.3,0,4.8-1.3,6.3-4.1,7.4-13.5,10.9-28.8,19-41.9,8.6-13.9,14.8-29.7,27.6-40.6,10.7-9.1,22.7-16.1,36.3-20.3,10.3-3.2,25.8,5.6,29.2,15.8,3.7,11.3,4.4,22.6,3.1,34.3-2.1,19.1-8.7,36.8-17.2,53.8-2.3,4.6-4.8,9-7.9,13.1-3.8,4.8-3,14.6,1,19.3.4.5.7,1.2,1.1,1.7-.4,2-.9,4-1.1,6.1-.4,4.1,1.3,5.9,5.3,5.2,6.6-1.2,13.2-.7,19.8-.9,5.1,3.9,11.2,6.6,15,12,1.1,1.6,2.8,1.4,4.5,1.1,9.9-1.8,19.9-2,29.9-3.2,6.2-.7,12.6-.8,18.7-2.2,6.6,1.7,13,3.8,18.9,7.2,1.9,1,3.4,2.3,4.9,3.9,2.1,2.3,1.9,4.2-.6,6.3-2.8,2.3-5.6,3.3-9.4,3.3-28.3-.4-56.5-.5-84.8-.9-9-.1-17.4-3.2-25.4-6.9-19.6-9.1-37-21.2-49.5-39.3-2.7-3.9-3.3-3.6-7.1-.6-4.3,3.3-9.6,4.5-14.7,6.2-13.2,4.3-26.6,6.9-40.6,5.9-22.5-1.6-40.1-11.9-52.8-30.2-13.6-19.6-18.6-42-20-65.4-2.5-41.7,5.8-81.8,18.8-121,3.1-9.4,7.7-18.4,9.9-28.2h0Z"/>
  <path class="cls-18" d="M359.8,597.6c-8.2-20.6-23.4-33-44.8-38.2-3.8-.9-1.1-3.6-1-5.2.1-2.3,1.8-.6,2.7-.2,11,5.2,22.7,6.8,34.6,7.4,8.7.5,17.4,0,26.1-.7-1.5,4.1-.8,6.1,2.7,6.5,13.5,1.6,27.3,2.6,40.4-.4,18.6-4.2,37.3-9.2,53.8-19.5,3.5,16.5,2.6,33.1.2,49.5-3.2,22.1-9.5,43.3-19,63.5-.8,1.7-1.9,3.4-2.8,5-4.4-.2-8,2.5-12.4,2.8-12.4.7-24.1-2.7-35.9-5.1-11.1-2.3-21.4-7.3-30.4-14.5-2.2-1.8-4.7-2.9-7.5-3.1.9-2.9,2.1-5.7,2.8-8.6,1.6-7.1,3.5-14.2,3-21.6-.4-5.5-1.5-10.9-2.4-16.3-.6-4.2-2.7-5.4-6.6-3.6-1.2.6-2.3,1.4-3.5,2.2h0Z"/>
  <path class="cls-9" d="M548.2,420.2c-8-5.4-16.1-10.7-24.1-16.1-6.9-4.6-13.7-9.4-20.8-13.8-2-1.3-1.8-2.8-1.8-4.6-.1-22.4-.2-44.9-.5-67.3-.1-8.8-.3-8.8,8.6-8.8,18.8,0,37.7,0,56.5-.2,2.7,0,3.7.6,3.2,3.5-2,14-2.8,28.1-3.9,42.1-1.9,24.4-3.5,48.9-5.3,73.4-1.6.4-2.4-1-3.4-1.7.3-2.3.6-4.7.8-7,1.2-23.6,2.3-47.2,3.6-70.8.4-7.3.8-14.6,1.6-21.9.4-3.3,1.2-6.4-.5-9.6-.6-1.1-.2-2.8-2.2-2.9-2.2,0-4,.8-4.8,2.7-1,2.7-2.2,5.5-2.2,8.3.2,12.5-.9,24.8-1.7,37.2-.8,13.1-.9,26.2-2,39.3-.5,6,0,12.2-1.3,18.2h0Z"/>
  <path class="cls-9" d="M441.7,393c0-10.9,0-21.8,0-32.6,0-12.2,0-24.4-.1-36.6,0-2,.2-3.7,2.1-5,8.2-5.5,14.6-12.3,16.2-22.7,11,5,21.6,9.8,32.3,14.6,1.4.6,2,1.4,1.9,3.2-.7,19.8-.7,39.6-.6,59.4,0,1.9.4,3.9-.7,5.8-9.6-5.1-17.6-1.4-23.7,5.7-5.1,5.9-11.6,5.5-17.9,6.9-3.3.7-6.7,1-9.6,1.4h0Z"/>
  <path class="cls-14" d="M366.5,645.5c2.9.2,5.4,1.4,7.5,3.1,9,7.2,19.3,12.2,30.4,14.5,11.8,2.4,23.5,5.8,35.9,5.1,4.4-.2,8-3,12.4-2.8-5.6,11.7-12.9,22.1-22.5,30.9-3.8,3.5-8.7,4.3-13.1,5.5-22.4,6.4-43.6,2.2-63.7-8.9-4.2-2.4-8-5.4-11.3-9-1.2-1.3-1.7-2.3-.4-3.9,6.7-7.9,11.5-16.9,15.7-26.2,5-.6,6.4-5.1,9-8.3h0Z"/>
  <path class="cls-16" d="M282.5,159.9c4.2-.7,8.2-.6,12.2,1.3,7.1,3.3,10.4,9.2,9.3,17.1-.5,3.3.8,4.5,4,3.8,5.8-1.2,6.7-2,6.2-7.9-1.1-12.7,9-25.6,21.1-29.2,8.4-2.5,15.6,3.3,15.2,12.3-.1,3.5-1,6.9-2.7,9.9-1.5,2.6.1,3.9,1.7,5.1,2,1.5,3.5,0,4.5-1.3,1.5-2,2.4-4.3,3.8-6.3,3.7-5.4,9-6.1,14.1-2,6.3,5.1,7.2,9.8,3.1,16.7-1.3,2.2-2.8,4.5-3.7,6.9-1.5,3.8-3.9,3.9-7.2,2.5-7.3-3.1-10.5-1-10.8,6.8-.1,3.9-2.8,6.5-6.6,6.3-4.1-.1-7.9-3.5-7.9-7,0-1.8,1.5-4-1.7-4.6-2.9-.5-6.2,1.8-6.5,4.8-.6,6.2-3.7,10.4-9.4,12.9-9.2,4-19.3,1.7-25.3-6-2.5-3.1-6.1-2.2-9.4-2.5-7.3-6.6-8.4-15.3-8.1-24.4.2-5.4,1.9-10.4,4-15.3h0Z"/>
  <path class="cls-7" d="M381.7,263.2c-.3,11.3-2.6,21.9-10.7,30.5-6.4,6.7-15.6,8.4-23.9,4.5-16.3-7.6-24-21.7-26.6-38.6-2.4-15.6-.5-18.2,14.5-24.3,9.3-3.8,18.8-4.7,28.6-2.3,10,2.4,15.9,8.2,17,18.7.4,3.8,1.1,7.7,1.1,11.6h0ZM344.5,265.6c.2,1.2-.7,3.8,1.5,4.6,2.9,1,5.8.6,8.6-1.2,2.6-1.7,1.8-3.7,1.6-5.8-.1-1.2-.1-2.5-.2-3.7-.1-2.8,1.2-2.9,3.4-2,3.1,1.3,4,4.1,4.6,6.9.6,3.1,2.3,3.4,4.8,2.6,5-1.5,6.7-7.7,3.1-12.1-3.8-4.7-11.8-6.8-17.8-4.5-5.9,2.2-9.9,8.2-9.7,15.1h0Z"/>
  <path class="cls-14" d="M451.6,764.5c-13.7,0-27.4,0-41.2,0s-2.1.2-2.1-1.2c0-6.1-4.7-8.6-9-10.9-9.4-5.2-19.7-8.1-30.2-10-19.2-3.6-38.6-5.3-58.2-5-5.8.1-11.6.6-17.4,1.2-2.6.3-3.3-.9-3.1-3,.2-2.5,1.1-4.8,2.3-7.1,5.2-9.5,12.1-17.6,19.9-24.8,1.8-1.7,3.9-2.7,6.5-3.2,4.8-1,7.9-4.9,11.4-8.1,1.7-1.6,3.2-4,5.2-4.6,1-.3,2.9,2.9,4.5,4.3,2.3,2.1,6.2,3.7,6.8,6.2.5,2-3,4.9-4.5,7.5-3.6,6.4-5.6,13.3-4.2,20.7,1.1,5.8,4.6,8.5,10.3,7.3,7.2-1.5,14.4-1,21.5-.5,12,.9,23.9,2.5,35.7,4.7,1.2.2,2.4.7,3.6,1-1.8,4.7-1.4,6.7,1.9,7.2,11,1.7,21.2,6.2,31.8,9.3,4.1,1.2,7.9,3.9,8.7,9h0Z"/>
  <path class="cls-14" d="M295.8,468c3-2.9,7.5-4,10.9-2.5,1,.4,2,1,2.4,2.2,5.6,16.3,18.3,27,30.2,38.2,8.2,7.7,17.1,14.4,26.5,20.5,8.3,5.3,16.6,10.5,26.6,11.9,3.2,3.1,3.3,7.4,4.3,11.3.2,1-.5,3.1-1.5,1.8-2.9-3.6-7-2.2-10.4-3-42-9.6-71.2-33.9-86.2-74.7-.7-2-.7-4.4-2.9-5.8h0Z"/>
  <path class="cls-8" d="M488.3,385.7c3.5,3.8,5,8.5,5,13.6-.5.1-1.1.2-1.6.3-7.4,1.8-11.9,7.8-17.7,11.9-8.9,6.4-17.4,13.5-26.1,20.2.8-4.3-.5-8.8,1.6-12.9.7-1.4-.9-2.1-2.1-2.5-4.4-1.1-8.8-.9-13.1-.2-2.2.4-3.5,2.2-3.7,4.8-.4,4.7-1.1,9.3-1.7,13.9-1.8-1.4-3.9-2.1-6-2.6-5.8-1.3-11.5-2.7-17.3-3.8-6.6-1.3-12.9-4.1-19.7-4.2-3.3,0-6.3-.3-8.7-2.7-1.9-6.9-1.7-14.2-3.9-21,1.6-.7,2.2.5,2.9,1.2,14,11.8,30.3,14.2,47.8,12,10.1-1.2,19.3-5,28.3-9.4.4,4.1,2.2,5.5,6.9,3.8,12.1-4.3,22.5-10.9,29.1-22.5h0Z"/>
  <path class="cls-14" d="M296.1,259.5c1.5,2.5,1.4,5.5,3,8.1,1.2,1.9-.6,2.9-2.1,3.7-8.1,4.3-16.5,3.8-24.4.1-23.6-10.9-37.9-28.9-40.5-55.3-.2-2.4.4-3.3,2.8-3.2,4,0,8-.2,11.9,1.3-.6,5.8,1.2,10.7,4.5,15.5,2.7,4,6.5,6.8,10,9.7,6,5,12,10.1,19.6,12.6h0c.3.3.6.5.9.8.8.3,1.5.7,2.3,1,3.8,2.3,7.4,4.9,12,5.7h0Z"/>
  <path class="cls-7" d="M417.8,205.4c6.9,8.3,9.7,17.6,11.5,27.2,2,10.6,2,21.2-2,31.4-.5,1.2-.5,2.5-2.3,2-10.5-2.9-21-5.8-30-12.4-3.9-2.9-7-6.1-5.2-11.7.2-.7.1-1.2.9-1.5,14.1-5,19.8-17.1,25-29.6.7-1.6,1.3-3.3,2.1-5.4h0ZM394.1,248.1c.1,1.8-.2,3.9,2.2,5.1,2.1,1,3.8-.1,5.4-1,1.6-.9,2.5-2.2,1.7-4.5-.5-1.6-1.1-3.8,1-4.8,2-1,3.2,1,4.5,2.1,1.5,1.2,2,3,2.8,4.6,1.1,2.1,2.5,2.7,4.7,1.7,2.2-1,4.4-2,4-5-1-6.7-6.8-10.5-14.9-9.9-7.4.5-11.3,4.5-11.4,11.7h0Z"/>
  <path class="cls-5" d="M282.5,159.9c-2.1,4.9-3.9,9.9-4,15.3-.3,9.1.9,17.8,8.1,24.4-4.8,5-18.1,3.6-23.6-.5-6-4.5-8.2-11.9-5.5-19.7,3.6-10.3,15-19.3,25-19.5h0Z"/>
  <path class="cls-12" d="M440.5,450.7c-.6,9.9-2.8,19.7-4.2,29.5-2.7,19.3-6.2,38.4-8.2,57.8-.4,3.4,0,7.4-4.9,8.3-2.2.4-3.2,0-2.7-2.4,3.6-17.9,5.7-36,8.2-54,2.4-17.5,4.7-35,7-52.5.6-4.4,1-8.8,1.6-13.2.1-1.1-.3-3.4,1.1-3,1.7.5,4.7-1,5.2,2.4-2.2-.2-2.4,1.6-2.6,3-.9,6.8-1.7,13.7-2.4,20.6-.1,1.4-.4,3.2,1.9,3.5h0Z"/>
  <path class="cls-18" d="M385.8,181.3c.5-2.8,1.1-5.6,1.6-8.4,3.6,2.3,7.3,1.6,10.8-3,3.5-4.6,7.9-7.5,13.1-9.5,3.4,9.8,2.8,19.8,1.9,29.9-.2,1.8-1.2,1.9-2.5,1.7-10.9-1.6-18,3.7-23.4,12.5-.9-.7-.6-1.7-.7-2.7-.6-5.1,1.7-9.4,3.4-13.9,1.6-4.3.3-6.2-4.2-6.6h0Z"/>
  <path class="cls-17" d="M335,454.2c5.1-7.8,9.4-16.2,16.3-22.7,5-4.8,10.5-8.4,17.4-9.8.3,3.9.7,7.7.9,11.5.1,3.2-1.2,5.3-4.3,7-11.1,6.2-18.4,15.3-19.4,28.5,0,.4-.3.7-.7,2-3.6-5.9-6.8-11.2-10-16.5h0Z"/>
  <path class="cls-12" d="M461.5,465.3c-.6,7.6-3,14.8-4.6,22.2-3.4,15.8-7,31.5-10.4,47.3-.3,1.4-.8,2.7-1.7,3.7-1.2,1.3-3.2,2.3-4.7,1.5-1.2-.6-.8-2.6-.4-4.2,6.1-25.9,12.1-51.9,17.5-77.9,1.6-7.8,3.5-15.6,6-23.2.5-1.6,1-3.2,3.2-3.2,1.9,0,2,1.4,2.3,2.8-2.1.1-2.4,1.6-2.4,3.2,0,3.8-1.2,7.4-2,11-1.3,5.5-2.8,11-2.7,16.7h0Z"/>
  <path class="cls-7" d="M388.1,227.2c.3-9.2,1.8-18,7.5-25.5,2.1-2.7,4.6-4.6,8.3-4.6,6.5,0,7.9,2,6.2,8.1-2.4,8.6-5.9,16.6-11.4,23.7-.4.5-.9,1.1-1.4,1.5-2.4,2.2-5,5.9-8.1,4.6-2.2-.9-.6-5.2-1-7.9Z"/>
  <path class="cls-14" d="M385.8,181.3c4.5.5,5.8,2.3,4.2,6.6-1.7,4.5-4.1,8.8-3.4,13.9.1.9-.2,2,.7,2.7-4,7.9-5.4,16.4-5.1,25.4-3.5-5.5-7.4-10.3-12.3-14.3-1-.8-.8-2-.5-3.1,1-4.2,1.9-8.3,2.9-12.5,1-3.9,2.5-7.4,6.4-9.7,3.4-2,5.2-5.6,7.1-9h0Z"/>
  <path class="cls-17" d="M447.9,431.8c8.7-6.8,17.1-13.8,26.1-20.2,5.8-4.1,10.3-10.2,17.7-11.9.5-.1,1.1-.2,1.6-.3,1,3.5.2,6.7-1.8,9.7-4,6.1-9.5,10.7-14.9,15.4-3.3,2.9-7.1,2.8-10.9,1.9-5.2-1.2-8,.1-8.4,5.2-.4,6.8-5.5,7.5-10.5,9.5.4-3.4.8-6.4,1.1-9.3h0Z"/>
  <path class="cls-8" d="M374,750.7c-6.1,1.5-12.5,1.5-18.7,2.2-9.9,1.2-20,1.4-29.9,3.2-1.7.3-3.4.5-4.5-1.1-3.8-5.5-9.9-8.2-15-12,10.3-.6,20.7,0,30.9,1,12.5,1.3,25,3.2,37.2,6.7Z"/>
  <path class="cls-7" d="M321.8,237.2c.7-12.6,12.9-24.7,24.3-24.2,5.5.2,10.4,2.5,14.9,5.6,2.5,1.7,1.7,4.5,2,6.8.2,1.5-1.4.9-2.2.9-10.4-.6-20.2,1.8-29.6,5.9-3.2,1.4-6.3,3.3-9.4,4.9h0c0,0,0,0,0,0Z"/>
  <path class="cls-12" d="M487.5,503.6c-8.4,2.3-12.4,8.6-15,16.4-.7,2.1-2,3.9-2.7,6-.9,2.9-2.8,4.1-6.2,4.8,2.7-6.4,5.3-12.2,7.8-18.1,1.3-3,2.3-5.8,1.1-9.4-1.2-3.6-1-7.6-1.1-11.4,0-3.7,2.9-5.8,4.8-8.4,3.9-5.3,4-5.4,9.4-1.7,1.4,1,3.3,1.5,4.3,3.1-1.4,4.7-2,9.6-4.1,14.1-1,2-.6,3.7,1.7,4.6h0Z"/>
  <path class="cls-17" d="M377.2,421.7c2.4,2.4,5.4,2.6,8.7,2.7,6.8.1,13.1,2.9,19.7,4.2,5.8,1.2,11.5,2.5,17.3,3.8,2.1.5,4.2,1.2,6,2.6,0,.1,0,.3,0,.4-.3,8.8-1.8,9.6-9.5,5.7-12.6-6.4-25.8-9.5-39.9-6.3-1.6.4-2.3,0-2.3-1.8,0-3.8,0-7.6,0-11.5h0Z"/>
  <path class="cls-18" d="M281,252c-7.6-2.5-13.6-7.6-19.6-12.6-3.5-3-7.3-5.8-10-9.7-3.2-4.8-5.1-9.7-4.5-15.5,6,1.8,11.7,4.1,16.7,7.9-4.8,3.8-4.8,4.5.3,8.4.9.7,1.8,1.2,2.6,2,6.1,5.6,12.1,11.2,14.5,19.6h0Z"/>
  <path class="cls-8" d="M353.6,620.8c.1,1.3.2,2.7.3,4-1.2,2.3-.6,4.6-.4,7-1.3,17.4-8.4,32.4-18.7,46.1-4.3,5.7-9.2,10.7-14.9,14.9-1.2.9-2.4,1.9-3.9,2.1-.1-.1-.2-.3-.4-.4,13.9-12.2,22.7-27.7,28.9-44.8,4.6-12.6,6-25.8,5.5-39.2,2.2,3.1.6,7.4,3.6,10.2h0Z"/>
  <path class="cls-8" d="M404.3,550.4c1.6-9.1-2.4-15.4-7.8-21.5,2.1-.8,3.8-.2,5.5-.2,5,0,9.9-.3,14.7-1.7,1.7-.5,2.6-.5,2.4,1.7-.6,5.6-1.2,11.3-1.7,16.9-.1,1.1-.4,1.7-1.6,2-3.7.8-7.4,1.8-11.6,2.8h0Z"/>
  <path class="cls-18" d="M281,252c-2.4-8.3-8.4-14-14.5-19.6-.8-.7-1.8-1.3-2.6-2-5.1-3.8-5.1-4.6-.3-8.4,11.9,7,21.3,16.4,28.2,28.4-1.9,2.5-4.8,2.8-7.5,3.3-.8-.3-1.5-.7-2.3-1-.3-.3-.6-.5-.9-.8h0,0Z"/>
  <path class="cls-5" d="M323.1,219.6c-5.1,7.2-8.9,14.9-9.9,23.8-.3,2.7-2.5,4.2-4.9,6.7.6-6.7.4-12.4-.5-18.2-.7-4.5-1.9-8.9-3.3-13.3-.4-1.1-1.4-2.7,1-2.4,4.9.6,9.5-1,14.3-1.5.5,2-.4,5,3.2,4.9h0Z"/>
  <path class="cls-12" d="M425.8,463.7c-.7,1.3,1,3.9-1.6,4.7-2.4.7-3.5-1.5-5.1-2.6-3.3-2.2-4.9-5.6-7.6-8.2-3.2-3-6.5-5.6-10.7-6.9-2.1-.7-4.2-1.7-2.9-4.4,1.1-2.3,3-3.7,5.7-2.6,8.1,3.3,15.2,8,21.3,14.2,1.5,1.5,1.4,1.6,1,5.7h0Z"/>
  <path class="cls-17" d="M353.6,620.8c-3-2.8-1.4-7.2-3.6-10.2-.7-4.8-2.5-9.3-4.5-13.6-2.7-5.9-6.7-10.7-13-13-6.2-5.8-13.1-10.5-20.4-14.7-1.8-1-4.2-1.6-4.7-4.2,16.8,3,29.4,12.2,38,26.7,5.3,8.9,8.3,18.6,8.1,29.1h0Z"/>
  <path class="cls-16" d="M448,474c-7.2-8.8-2.6-18-2.2-26.9,0-1.5,1.5-1.7,2.7-2.1,2-.6,3.8-1.5,6.2-2.4-2.3,10.7-4.5,21.1-6.8,31.4Z"/>
  <path class="cls-17" d="M400.1,323.6c-5.6,0-9.9-1.6-14.2-2.9-1.7-.5-2-1.6-1.7-3.2.6-3.9,1.1-7.9,1.8-12.7,4.9,6.5,9.3,12.3,14.2,18.8h0Z"/>
  <path class="cls-16" d="M487.5,503.6c-2.3-.9-2.7-2.7-1.7-4.6,2.2-4.5,2.7-9.4,4.1-14.1,7.7,3.7,7.8,3.8,3.8,10.9-1.6,2.9-1.1,7.6-6.2,7.8h0Z"/>
  <path class="cls-16" d="M323.1,219.6c-3.7,0-2.8-2.9-3.2-4.9,4.5-2.3,9.1-4.6,12.5-8.5.6-.7,1.3-1.3,2.1-.7,2,1.6,4.7,1.4,7.5,2.7-8,1.7-13.8,6-18.9,11.3h0Z"/>
  <path class="cls-17" d="M302.6,500.8c-3-.3-3.4-3.2-4.4-5.1-3.6-6.3-8-12.3-8.1-20,0-1.9,0-3.9,2.1-5,.8,9.3,4.2,17.8,8.5,26,.7,1.3,1.2,2.7,1.9,4.1h0Z"/>
  <path class="cls-16" d="M440.5,450.7c-2.2-.3-2-2.1-1.9-3.5.7-6.9,1.5-13.7,2.4-20.6.2-1.5.3-3.2,2.6-3-.6,9.1-1.7,18.1-3,27.1h0Z"/>
  <path class="cls-16" d="M440,513.8c-1.9,10-3.7,19.3-5.7,29.6-1.7-6.2,2.3-26.6,5.7-29.6Z"/>
  <path class="cls-16" d="M461.5,465.3c0-5.7,1.4-11.2,2.7-16.7.9-3.6,2-7.2,2-11,0-1.6.3-3.1,2.4-3.2-.4,7-3,13.5-4.3,20.3-.7,3.6-1.3,7.3-2.9,10.6h0Z"/>
  <path class="cls-18" d="M284.2,253.8c2.8-.5,5.6-.8,7.5-3.3,2.1,2.7,3.7,5.6,4.4,9-4.5-.8-8.2-3.3-12-5.7h0Z"/>
  <path class="cls-16" d="M367.1,195.7c-1,3.2-2,6.3-3.2,10.3-.7-2.2-1.1-3.4-1.5-4.6-1-3.9.5-5.8,4.6-5.7Z"/>
  <path class="cls-16" d="M354.6,203.9c.5,1.5,1.3,2.8,1.1,4.5-3.7-1.3-7.5-.1-10.5-1,3,0,6.1-1.5,9.4-3.6h0Z"/>
  <path class="cls-17" d="M353.5,631.8c-.1-2.3-.8-4.7.4-7,.2,2.3.6,4.7-.4,7Z"/>
  <path class="cls-17" d="M368.6,416.8l-.3-.9c.1.2.3.4.4.6,0,0,0,.2-.1.3h0Z"/>
  <path class="cls-17" d="M368.9,420.2c0-.2-.2-.4-.3-.6,0,0,.1-.2.2-.3,0,.3,0,.6,0,.9h0Z"/>
  <path class="cls-13" d="M321.8,237.1c0,0-.2.2-.3.2,0,0-.1,0-.2,0,.2,0,.3,0,.5-.1h0c0,0,0,0,0,0Z"/>
  <path class="cls-6" d="M344.5,265.6c-.1-7,3.9-12.9,9.7-15.1,6-2.2,14-.2,17.8,4.5,3.5,4.4,1.9,10.6-3.1,12.1-2.6.8-4.2.5-4.8-2.6-.6-2.8-1.5-5.6-4.6-6.9-2.1-.9-3.5-.9-3.4,2,0,1.2,0,2.5.2,3.7.2,2.1,1,4.1-1.6,5.8-2.9,1.8-5.8,2.2-8.6,1.2-2.1-.8-1.3-3.3-1.5-4.6h0Z"/>
  <path class="cls-8" d="M281,252c.3.3.6.5.9.8-.3-.3-.6-.5-.9-.8Z"/>
  <path class="cls-6" d="M394.1,248.1c0-7.2,3.9-11.2,11.4-11.7,8.2-.5,14,3.3,14.9,9.9.4,3-1.7,4-4,5-2.2,1-3.5.4-4.7-1.7-.8-1.5-1.3-3.3-2.8-4.6-1.4-1.1-2.5-3.1-4.5-2.1-2.1,1-1.6,3.2-1,4.8.8,2.2-.1,3.5-1.7,4.5-1.6.9-3.3,2-5.4,1-2.4-1.2-2.1-3.3-2.2-5.1h0Z"/>
  <g>
    <path class="cls-4" d="M577.4,202.8s2-3.8,6.4-10.1"/>
    <path class="cls-3" d="M588.4,186.1c29.9-40.2,123.2-137.6,313-115.1,164.6,19.5,231.6,134.7,250.5,176.1"/>
    <path class="cls-4" d="M1153.6,250.8c3.1,7,4.4,11.2,4.4,11.2,0,0,3.7-2.2,10.6-5.6"/>
    <path class="cls-1" d="M1175.7,252.9c50.8-23.7,203-80.1,356.9,9,120.4,69.8,131.9,166.4,131.3,204.1"/>
    <path class="cls-4" d="M1663.8,469.9c-.3,7.6-1,11.9-1,11.9,0,0,4.3-.7,11.9-1.4"/>
    <path class="cls-2" d="M1682.6,479.8c45.8-3.2,160.1-1.5,228.4,84.6,68,85.7,54.7,146.5,43.1,172.3"/>
    <path class="cls-4" d="M1952.4,740.3c-3.4,6.7-6.2,10.2-6.2,10.2"/>
  </g>
  <path class="cls-11" d="M1779.2,314.5c-6.1,13-11.5,24.5-17,36-8.1,16.8-18.8,20.7-35.8,12.7-29.7-13.9-59.2-27.9-88.8-42.1-15.8-7.5-19.6-18.3-12.4-34,6.6-14.4,13.6-28.5,20.2-42.9,2.6-5.7,5.7-7,11.4-4.2,55.1,26.2,110.3,52.1,165.2,78.5,3.3,1.6,4.7,7.3,7.1,11-4.6.7-9.9,3.1-13.8,1.6-11.9-4.5-23.2-10.6-36.2-16.7h0ZM1760.8,332c4.8-10.2,9.6-20.2,14.4-30.4-4.3-2-8.1-3.8-11-5.2-1.2,12-2.3,23.6-3.4,35.6Z"/>
  <path class="cls-11" d="M1846.9,722.9c-35.3,21.9-59.7,21.1-84.7.4-8.7-7.2-9.5-13.9-1.8-21.9,2.1-2.2,3.9-4.8,6.2-6.7,10.1-8.7,21.5-16.5,18.5-32.6,16.9-22.9,14.3-49.3,13.8-75.4,0-2.8,3.8-5.6,5.9-8.4,1.9,3,5.3,5.8,5.6,9,.8,10.4.3,20.9.8,31.4.2,5.2.7,10.5,2.2,15.4,6.2,19.7,8,20.3,26.8,12.1,2-.9,4.1-1.4,6.2-2.2,11.5-4.1,19.3-5.8,24.4-4.3.9.3,1.7.6,2.5,1.1,5.2,3.2,6.9,11.6,7.1,26.5.5,27.2-11,47.1-33.4,55.7h0ZM1825.5,683.4c.7.5,1.5,1,2.2,1.5,13.8-11.7,27.6-23.4,41.4-35l-3.6-6c-11.4,4.4-24.5,6.6-33.4,13.9-5.5,4.5-4.6,16.8-6.6,25.6h0ZM1761.5,708.5c.9,1.8,1.9,3.6,2.8,5.4,14.5-5.8,29-11.6,45.2-18-9.1-4.2-15.9-7.4-24.2-11.2-7.7,7.7-15.7,15.8-23.8,23.8h0ZM1801.1,650.6c-.9-.2-1.9-.4-2.8-.6-1.8,6.2-3.6,12.5-5.4,18.8,1.7.3,3.4.7,5.1,1,1.1-6.4,2.1-12.8,3.2-19.2h0Z"/>
  <path class="cls-11" d="M1359.3,278.5c-12.6,5.1-24.3,10.3-36.4,14.4-2.3.8-6-2.5-9.1-3.9,1.4-3.1,2.1-8,4.4-8.9,9.8-3.8,20-6.7,30.2-9.5,17.8-5,35.8-9.3,53.4-14.6,6.9-2.1,10.2-1.6,12.4,6.2,5.6,19.7,5.6,20.6-14.2,26.4-8.2,2.4-16.9,3.4-25.1,6-8.1,2.6-12.1.4-13.2-7.9-.3-2.2-1.2-4.2-2.4-8.2h0Z"/>
  <path class="cls-11" d="M1691.2,204.5c-47.4-.6-92.8-1.2-139-1.7,21.7-21.8,110.8-21,139,1.7Z"/>
  <path class="cls-11" d="M1760.8,332c1.2-12,2.3-23.6,3.4-35.6,2.9,1.4,6.7,3.2,11,5.2-4.8,10.2-9.6,20.2-14.4,30.4Z"/>
  <path class="cls-10" d="M1898.4,625l-23.5,17.3,3.1,5.6,38.4-29s3.1-3.4,0-5-18,11.1-18,11.1h0Z"/>
  <path class="cls-18" d="M474.4,547.4c-16.5,10.3-35.2,15.3-53.8,19.5-13.1,3-26.9,2-40.4.4-3.5-.4-4.2-2.3-2.7-6.5,28.5-3.2,56.1-9.9,82.5-21.6,2.5-1.1,5-2,7.9-2.6,4.3-.9,4.4,1.4,5.1,3.8.6,2.2,1,4.6,1.5,6.8Z"/>
  <path class="cls-9" d="M548.2,420.2c1.4-6,.8-12.1,1.3-18.2,1.1-13.1,1.2-26.2,2-39.3.7-12.4,1.8-24.8,1.7-37.2,0-2.8,1.1-5.6,2.2-8.3.7-1.9,2.6-2.8,4.8-2.7,2.1,0,1.6,1.8,2.2,2.9,1.8,3.2.9,6.3.5,9.6-.8,7.3-1.2,14.6-1.6,21.9-1.2,23.6-2.4,47.2-3.6,70.8-.1,2.3-.5,4.7-.8,7-2.9-2.1-6.1-3.9-8.7-6.4h0Z"/>
  <path class="cls-18" d="M152.2,460.7c-3.3,2.6-6.8,3.3-10.8,1.8-1.9-.7-3.5-1.7-4.1-3.7-4.2-12.8-11.6-24-19.2-35-1.3-1.9-2.5-4-5.2-4-2.1-4.5-4.2-8.9-6.3-13.4,21.7,2.9,40.8,24.2,45.7,54.3h0Z"/>
  <path class="cls-18" d="M336.4,473.4c-4.8,6.9-9.8,6.5-14.1-.3-8.4-13.2-13.8-27.6-18.7-42.2-1.2-3.5-2-7.2-2.6-10.8-.8-4.8,3-9,7.8-9,1.9,0,3.1.7,3.8,2.9,1.5,4.8,1.4,10.1,4.1,14.6-.5,1.1-1.9,1.6-1.2,3.5,5.5,14.5,12.2,28.4,20.9,41.3h0Z"/>
  <path class="cls-18" d="M441.3,314.4c-3.1,0-6.1.2-8.4,2.7-.2.2-.5.3-.7.4-3,1-6.5,4.2-8.9.5-2-2.9,1.9-4.9,3.8-6.8,5.3-5.6,10.1-11.3,10.6-19.5,0-1.2.1-2.4-.1-3.6-1.1-4.7.3-6.8,5.2-7.5,1.5-.2,3,0,4.6-.1,11,11,5.3,27.8-6,34h0Z"/>
  <path class="cls-18" d="M451.6,764.5c-.8-5-4.6-7.8-8.7-9-10.6-3.1-20.8-7.6-31.8-9.3-3.3-.5-3.7-2.5-1.9-7.2,11.5,1.5,22.5,5,33.4,8.6,5,1.6,9.8,3.7,14.3,6.4,1.6,1,3.2,2.2,4.5,3.6,1.3,1.3,3.3,2.8,1.9,4.9-1.2,1.9-3.2,2.8-5.6,2.6-2-.2-4.1-.4-6.2-.6h0Z"/>
  <path class="cls-18" d="M366.5,645.6c-2.5,3.3-3.9,7.7-9,8.3,4.5-13,7.3-26.3,5.8-40.2-.6-5.5-2.1-10.8-3.6-16.1,1.2-.7,2.2-1.6,3.5-2.2,4-1.8,6-.6,6.6,3.6.8,5.4,1.9,10.8,2.4,16.3.6,7.3-1.4,14.5-3,21.6-.6,2.9-1.8,5.8-2.8,8.6h0Z"/>
  <path class="cls-18" d="M313.9,266.9c-4.2,12.5-4.5,25.7-6.3,38.7-.4,2.7-.2,5.6-1,8.2-1.1,3.8-4.3,4.6-7.8,4.7,2.9-15,4.9-30.1,7.2-45.2,1-6.7.9-13.8,6.2-19.8.6,4.7,1.2,9,1.8,13.4h0Z"/>
  <path class="cls-18" d="M488.3,385.7c-6.6,11.6-17,18.2-29.1,22.5-4.6,1.7-6.5.2-6.9-3.8,9.1-5.1,16.5-12.3,24.7-18.5.2-.2.4-.4.6-.5,4.8-5,6.1-5,10.6.3h0Z"/>
  <path class="cls-18" d="M302.6,564.2c-4.1,3.7-9.5,3.2-14.4,4-10.2,1.6-19.5,4.9-27.1,12.1-1.3,1.2-2.7,2.4-4.1,3.4-1.8,1.4-3.8,2.1-5.5.1-1.8-2.1-.8-4.2.5-6.1,3.2-4.4,7.2-8,12-10.6.4-.2.7-.4,1.1-.6,1,2.6,2.7,1.5,4.4.9,9.2-2.9,18.5-4.8,28.3-4.3,1.7,0,3.3,0,4.9.8h0Z"/>
  <path class="cls-18" d="M411.3,160.5c-5.2,1.9-9.6,4.8-13.1,9.5-3.5,4.6-7.2,5.3-10.8,3,0-.3-.2-.6,0-.8,1.9-7.1,15.8-17.7,22.9-17.4.4,0,.8.2,1.5.3-1.4,1.8-.8,3.6-.4,5.5h0Z"/>
  <path class="cls-18" d="M332.6,583.9c6.3,2.3,10.3,7.1,13,13,2,4.4,3.8,8.8,4.5,13.6.5,13.4-.9,26.5-5.5,39.2-6.3,17.1-15.1,32.6-28.9,44.8-2.1.6-4.2,1.3-6.4,1.7-1.7.3-3.8.8-4.8-1.3-.9-1.8,0-3.4,1.4-4.8,4.6-4.6,8.9-9.5,12.5-14.9,10.3-15.7,17.4-32.6,18.5-51.7.4-6.5,0-12.9-1.2-19.3-1-4.8-3.5-8.9-7.2-12.3-1.3-1.2-3.8-2.1-2.8-4.5.9-2.3,3.2-2.9,5.4-3.3.5,0,1.1,0,1.6-.2Z"/>
  <path class="cls-15" d="M760.3,484.6c1.3,1.7,1.9,3.6,1.9,5.5,0,3.2-1.9,6.3-4.7,8.5-1.9,1.5-4,2.1-6.3,2.1s-5.7-1.3-7.4-3.6l-59.9-79.6-23.1,23.5v50.8c0,5.7-4.2,8.7-10,8.7s-10.2-3-10.2-8.7v-150c0-5.9,4.2-8.7,10.2-8.7s10,2.8,10,8.7v73.8l76.6-80c1.7-1.9,4.2-2.8,6.6-2.8s5.1.8,7,2.5c2.3,1.9,3.6,5.1,3.6,8s-.6,4.2-2.1,5.7l-54.6,55,62.4,80.4h0Z"/>
  <path class="cls-15" d="M795.9,494.6c-1.5,4.2-4.7,5.9-8.2,5.9s-2.8-.2-4.2-.6c-4.2-1.1-7.4-4.7-7.4-8.7s.2-2.3.6-3.6l57.6-144.5c2.8-7.2,8-10,14.6-10s12.3,2.8,15,10l57.6,144.9c.6,1.3.8,2.3.8,3.6,0,4.2-3.4,7.4-7.6,8.5-1.3.4-2.5.6-3.8.6-3.8,0-7.2-1.9-8.7-5.9l-16.7-43.8h-73.2l-16.3,43.6h0ZM879.1,433.2l-23.5-61.6c-2.3-6.1-4.7-12.9-6.6-20.1-1.9,7.2-4,14-6.6,20.3l-23.9,61.4h60.5,0Z"/>
  <path class="cls-15" d="M1055.6,341.8c0-5.9,4.2-8.7,10.2-8.7s9.9,2.8,9.9,8.7v145.4c0,8.2-4.2,13.3-12.7,13.3s-12.5-3.6-17.8-12.1l-56.1-90.8c-8.5-13.5-19-34.3-23.9-44.9,1.3,13.5,3,43,3,74.1v65c0,5.7-4.2,8.7-10,8.7s-10.2-3-10.2-8.7v-146c0-7.8,5.1-12.7,13.3-12.7s13.1,3.8,17.1,10.2l53.3,86.6c9.7,15.9,21.6,38.5,27.1,50.4-1.3-13.1-3.4-43.8-3.4-74.3v-64.1h0Z"/>
  <path class="cls-15" d="M1224,438.9c0-3.6-1.1-5.9-5.5-5.9h-27.7c-5.7,0-8.5-3.6-8.5-8.9s2.8-9.3,8.5-9.3h34.1c12.5,0,17.3,5.5,17.3,18.4v59.7c0,6.1-3.4,9.1-8.9,9.1s-9.1-3-9.1-7.8v-5.5c0-2.1.2-5.9.6-8.7-1.5,2.5-4,6.3-6.1,8-8.5,7.8-22.4,14.4-38.7,14.4-46.6,0-74.3-34.5-74.3-85.7s27.5-85.5,73.6-85.5,52.1,19.5,59.5,35.3c.8,1.7,1.1,3,1.1,4.4,0,4.2-3.2,7.2-6.6,8.5-1.7.6-3.6,1.1-5.3,1.1-3.6,0-6.8-1.5-8.7-5.7-5.7-12.7-16.3-25.2-39.8-25.2s-52.7,26.2-52.7,67.3,21.8,67.1,53.5,67.1,43.6-15.7,43.6-40.4v-4.7h0Z"/>
  <path class="cls-15" d="M1283.5,494.6c-1.5,4.2-4.7,5.9-8.2,5.9s-2.8-.2-4.2-.6c-4.2-1.1-7.4-4.7-7.4-8.7s.2-2.3.6-3.6l57.6-144.5c2.8-7.2,8-10,14.6-10s12.3,2.8,15,10l57.6,144.9c.6,1.3.8,2.3.8,3.6,0,4.2-3.4,7.4-7.6,8.5-1.3.4-2.5.6-3.8.6-3.8,0-7.2-1.9-8.7-5.9l-16.7-43.8h-73.2l-16.3,43.6h0ZM1366.7,433.2l-23.5-61.6c-2.3-6.1-4.7-12.9-6.6-20.1-1.9,7.2-4,14-6.6,20.3l-23.9,61.4h60.5Z"/>
  <g>
    <path class="cls-11" d="M1198.5,598.9c.6,1.4.8,2.9.8,4.2,0,4.3-3.3,7.3-6.4,8.3-1.7.6-3.3.8-5,.8-3.5,0-6.8-1.4-8.7-5.4-6.2-14.9-16.6-27.2-40.2-27.2s-51.6,25.1-51.6,65.9,20.5,65.7,51.6,65.7,36.7-14.9,42.1-31.5c1.7-4.6,5.4-6.4,9.3-6.4s2.7.2,4.2.6c3.5.8,7.3,3.9,7.3,8.3s-.2,2.3-.6,3.5c-7.3,20.5-24.7,43.8-61.6,43.8s-73-32.6-73-84.2,28.4-83.8,71.5-83.8,52.9,19.1,60.3,37.3h0Z"/>
    <path class="cls-11" d="M1365.2,645.5c0,51-27.8,84-72.2,84s-72.6-32.8-72.6-84.2,28-83.8,72.6-83.8,72.2,32.8,72.2,84ZM1241,645.5c0,40,20.3,65.9,52.1,65.9s51.6-25.5,51.6-67.2-20.1-64.9-51.6-64.9-52.1,26.1-52.1,66.2h0Z"/>
    <path class="cls-11" d="M1532.1,645.5c0,51-27.8,84-72.2,84s-72.6-32.8-72.6-84.2,28-83.8,72.6-83.8,72.2,32.8,72.2,84ZM1407.9,645.5c0,40,20.3,65.9,52.1,65.9s51.6-25.5,51.6-67.2-20.1-64.9-51.6-64.9-52.1,26.1-52.1,66.2h0Z"/>
    <path class="cls-11" d="M1678.6,711.9c1.2,1.7,1.9,3.5,1.9,5.4,0,3.1-1.9,6.2-4.6,8.3-1.9,1.4-3.9,2.1-6.2,2.1s-5.6-1.2-7.3-3.5l-58.7-78-22.6,23v49.8c0,5.6-4.2,8.5-9.8,8.5s-9.9-2.9-9.9-8.5v-147c0-5.8,4.2-8.5,9.9-8.5s9.8,2.7,9.8,8.5v72.4l75.1-78.4c1.7-1.9,4.2-2.7,6.4-2.7s5,.8,6.8,2.5c2.3,1.9,3.5,5,3.5,7.9s-.6,4.2-2.1,5.6l-53.5,53.9,61.2,78.8h0Z"/>
  </g>
  <path class="cls-9" d="M601.2,52.6l109,58.3,25.1-.4,27,17.8-19.5,32.2-27-16.5-12.6-25-106.2-62.7s-4.1-2.4-1.8-4.7c2-2,6.1.9,6.1.9h0Z"/>
</svg>